<svg width="15" height="13" viewBox="0 0 15 13" fill="none" xmlns="http://www.w3.org/2000/svg">
<path d="M15 1.5405C14.4396 1.80728 13.843 1.98267 13.2312 2.0605C13.8802 1.6445 14.3621 0.997857 14.5875 0.240501C13.9938 0.617501 13.3375 0.890501 12.6312 1.0335C12.3462 0.707592 11.9988 0.447284 11.6113 0.269298C11.2239 0.0913115 10.8048 -0.000417898 10.3813 1.43121e-06C9.91002 0.00501144 9.446 0.121019 9.02407 0.339309C8.60213 0.557599 8.23325 0.872494 7.94514 1.26034C7.65702 1.64818 7.45716 2.09888 7.36058 2.57859C7.264 3.05829 7.2732 3.55452 7.3875 4.03C6.15622 3.96009 4.95346 3.61779 3.85951 3.02596C2.76556 2.43413 1.80561 1.60639 1.04375 0.598001C0.646306 1.32111 0.52403 2.17293 0.701072 2.98524C0.878113 3.79755 1.3416 4.51128 2 4.9855C1.50978 4.96692 1.03134 4.82411 0.60625 4.5695V4.615C0.60625 6.201 1.66875 7.527 3.075 7.8325C2.62263 7.96147 2.14762 7.97927 1.6875 7.8845C2.08125 9.19099 3.21875 10.14 4.5625 10.166C3.92906 10.7004 3.19863 11.0967 2.41477 11.3312C1.63091 11.5657 0.809658 11.6337 0 11.531C1.4003 12.4915 3.04133 13.0023 4.71875 13C10.3813 13 13.4688 7.995 13.4688 3.6595V3.237C14.0687 2.7755 14.5875 2.197 15 1.5405Z" fill="white"/>
</svg>
